Hubballi-Regular-wire.ufo
<glyph name="quotesingle" format="1">
  <advance width="245"/>
  <unicode hex="0027"/>
  <outline>
    <contour>
      <point x="138" y="568" type="move"/>
      <point x="98" y="392" type="line"/>
    </contour>
  </outline>
</glyph>
<glyph name="parenleft" format="1">
  <advance width="335"/>
  <unicode hex="0028"/>
  <outline>
    <contour>
      <point x="233" y="603" type="move"/>
      <point x="158" y="520"/>
      <point x="97" y="393"/>
      <point x="97" y="259" type="curve" smooth="yes"/>
      <point x="97" y="127"/>
      <point x="154" y="6"/>
      <point x="233" y="-76" type="curve"/>
    </contour>
  </outline>
</glyph>
<glyph name="four" format="1">
  <advance width="531"/>
  <unicode hex="0034"/>
  <outline>
    <contour>
      <point x="367" y="518" type="move"/>
      <point x="367" y="23" type="line"/>
    </contour>
    <contour>
      <point x="360" y="509" type="move"/>
      <point x="61" y="147" type="line"/>
    </contour>
    <contour>
      <point x="71" y="147" type="move"/>
      <point x="475" y="147" type="line"/>
    </contour>
  </outline>
</glyph>
<glyph name="R" format="1">
  <advance width="541"/>
  <unicode hex="0052"/>
  <outline>
    <contour>
      <point x="139" y="222" type="move"/>
      <point x="270" y="222" type="line" smooth="yes"/>
      <point x="381" y="222"/>
      <point x="436" y="287"/>
      <point x="436" y="365" type="curve" smooth="yes"/>
      <point x="436" y="449"/>
      <point x="370" y="508"/>
      <point x="270" y="508" type="curve" smooth="yes"/>
      <point x="123" y="508" type="line"/>
      <point x="123" y="23" type="line"/>
    </contour>
    <contour>
      <point x="299" y="216" type="move"/>
      <point x="464" y="23" type="line"/>
    </contour>
  </outline>
</glyph>
<glyph name="Z" format="1">
  <advance width="563"/>
  <unicode hex="005A"/>
  <outline>
    <contour>
      <point x="462" y="508" type="move"/>
      <point x="399" y="413"/>
      <point x="146" y="113"/>
      <point x="93" y="31" type="curve"/>
    </contour>
    <contour>
      <point x="102" y="508" type="move"/>
      <point x="451" y="508" type="line"/>
    </contour>
    <contour>
      <point x="89" y="23" type="move"/>
      <point x="474" y="23" type="line"/>
    </contour>
  </outline>
</glyph>
<glyph name="bracketleft" format="1">
  <advance width="335"/>
  <unicode hex="005B"/>
  <outline>
    <contour>
      <point x="233" y="603" type="move"/>
      <point x="98" y="603" type="line"/>
      <point x="98" y="-76" type="line"/>
      <point x="233" y="-76" type="line"/>
    </contour>
  </outline>
</glyph>
<glyph name="a" format="1">
  <advance width="450"/>
  <unicode hex="0061"/>
  <outline>
    <contour>
      <point x="122" y="349" type="move"/>
      <point x="143" y="356"/>
      <point x="182" y="365"/>
      <point x="215" y="365" type="curve" smooth="yes"/>
      <point x="307" y="365"/>
      <point x="349" y="309"/>
      <point x="349" y="228" type="curve" smooth="yes"/>
      <point x="349" y="137" type="line" smooth="yes"/>
      <point x="349" y="82"/>
      <point x="362" y="50"/>
      <point x="386" y="24" type="curve"/>
    </contour>
    <contour>
      <point x="348" y="217" type="move"/>
      <point x="314" y="218"/>
      <point x="284" y="220"/>
      <point x="255" y="220" type="curve" smooth="yes"/>
      <point x="182" y="220"/>
      <point x="133" y="202"/>
      <point x="103" y="172" type="curve" smooth="yes"/>
      <point x="82" y="152"/>
      <point x="75" y="129"/>
      <point x="75" y="104" type="curve" smooth="yes"/>
      <point x="75" y="68"/>
      <point x="101" y="23"/>
      <point x="172" y="23" type="curve" smooth="yes"/>
      <point x="246" y="23"/>
      <point x="301" y="53"/>
      <point x="349" y="118" type="curve"/>
    </contour>
  </outline>
</glyph>
<glyph name="b" format="1">
  <advance width="505"/>
  <unicode hex="0062"/>
  <outline>
    <contour>
      <point x="110" y="24" type="move"/>
      <point x="110" y="534" type="line"/>
    </contour>
    <contour>
      <point x="110" y="62" type="move"/>
      <point x="158" y="36"/>
      <point x="209" y="23"/>
      <point x="268" y="23" type="curve" smooth="yes"/>
      <point x="364" y="23"/>
      <point x="432" y="89"/>
      <point x="432" y="193" type="curve" smooth="yes"/>
      <point x="432" y="296"/>
      <point x="365" y="365"/>
      <point x="281" y="365" type="curve" smooth="yes"/>
      <point x="219" y="365"/>
      <point x="156" y="321"/>
      <point x="111" y="249" type="curve" smooth="yes"/>
      <point x="81" y="200"/>
    </contour>
  </outline>
</glyph>
<glyph name="e" format="1">
  <advance width="460"/>
  <unicode hex="0065"/>
  <outline>
    <contour>
      <point x="87" y="193" type="move"/>
      <point x="296" y="193" type="line" smooth="yes"/>
      <point x="356" y="193"/>
      <point x="378" y="217"/>
      <point x="378" y="255" type="curve" smooth="yes"/>
      <point x="378" y="303"/>
      <point x="325" y="365"/>
      <point x="242" y="365" type="curve" smooth="yes"/>
      <point x="149" y="365"/>
      <point x="74" y="294"/>
      <point x="74" y="189" type="curve" smooth="yes"/>
      <point x="74" y="81"/>
      <point x="151" y="23"/>
      <point x="262" y="23" type="curve" smooth="yes"/>
      <point x="298" y="23"/>
      <point x="333" y="31"/>
      <point x="359" y="41" type="curve"/>
      <point x="359" y="41"/>
    </contour>
  </outline>
</glyph>
<glyph name="m" format="1">
  <advance width="752"/>
  <unicode hex="006D"/>
  <outline>
    <contour>
      <point x="110" y="23" type="move"/>
      <point x="110" y="365" type="line"/>
    </contour>
    <contour>
      <point x="382" y="23" type="move"/>
      <point x="382" y="233" type="line" smooth="yes"/>
      <point x="382" y="336"/>
      <point x="334" y="365"/>
      <point x="273" y="365" type="curve" smooth="yes"/>
      <point x="216" y="365"/>
      <point x="156" y="325"/>
      <point x="112" y="276" type="curve"/>
    </contour>
    <contour>
      <point x="652" y="23" type="move"/>
      <point x="652" y="233" type="line" smooth="yes"/>
      <point x="652" y="336"/>
      <point x="604" y="365"/>
      <point x="543" y="365" type="curve" smooth="yes"/>
      <point x="486" y="365"/>
      <point x="427" y="325"/>
      <point x="382" y="276" type="curve"/>
    </contour>
  </outline>
</glyph>
<glyph name="multiply" format="1">
  <advance width="530"/>
  <unicode hex="00D7"/>
  <outline>
    <contour>
      <point x="110" y="122" type="move"/>
      <point x="396" y="397" type="line"/>
    </contour>
    <contour>
      <point x="400" y="122" type="move"/>
      <point x="114" y="396" type="line"/>
    </contour>
  </outline>
</glyph>
<glyph name="lcaron" format="1">
  <advance width="351"/>
  <unicode hex="013E"/>
  <outline>
    <contour>
      <point x="306" y="561" type="move"/>
      <point x="286" y="422" type="line"/>
    </contour>
    <component base="l"/>
  </outline>
</glyph>
<glyph name="knAnusvara" format="1">
  <advance width="550"/>
  <unicode hex="0C82"/>
  <outline>
    <contour>
      <point x="180" y="419"/>
      <point x="93" y="325"/>
      <point x="93" y="220" type="curve" smooth="yes"/>
      <point x="93" y="114"/>
      <point x="178" y="19"/>
      <point x="291" y="19" type="curve" smooth="yes"/>
      <point x="403" y="19"/>
      <point x="487" y="115"/>
      <point x="487" y="220" type="curve" smooth="yes"/>
      <point x="487" y="323"/>
      <point x="401" y="419"/>
      <point x="291" y="419" type="curve" smooth="yes"/>
    </contour>
  </outline>
</glyph>
<glyph name="knVisarga" format="1">
  <advance width="348"/>
  <unicode hex="0C83"/>
  <outline>
    <contour>
      <point x="174" y="449" type="curve" smooth="yes"/>
      <point x="125" y="449"/>
      <point x="90" y="408"/>
      <point x="90" y="368" type="curve" smooth="yes"/>
      <point x="90" y="323"/>
      <point x="123" y="287"/>
      <point x="174" y="287" type="curve" smooth="yes"/>
      <point x="225" y="287"/>
      <point x="258" y="323"/>
      <point x="258" y="368" type="curve" smooth="yes"/>
      <point x="258" y="409"/>
      <point x="225" y="449"/>
    </contour>
    <contour>
      <point x="174" y="186" type="curve" smooth="yes"/>
      <point x="125" y="186"/>
      <point x="90" y="145"/>
      <point x="90" y="105" type="curve" smooth="yes"/>
      <point x="90" y="61"/>
      <point x="123" y="24"/>
      <point x="174" y="24" type="curve" smooth="yes"/>
      <point x="225" y="24"/>
      <point x="258" y="61"/>
      <point x="258" y="104" type="curve" smooth="yes"/>
      <point x="258" y="146"/>
      <point x="225" y="186"/>
    </contour>
  </outline>
</glyph>
<glyph name="knOO" format="1">
  <advance width="742"/>
  <unicode hex="0C93"/>
  <outline>
    <contour>
      <point x="309" y="597" type="move"/>
      <point x="293" y="604"/>
      <point x="277" y="611"/>
      <point x="252" y="611" type="curve" smooth="yes"/>
      <point x="204" y="611"/>
      <point x="171" y="574"/>
      <point x="171" y="518" type="curve" smooth="yes"/>
      <point x="171" y="491"/>
      <point x="177" y="470"/>
      <point x="183" y="452" type="curve"/>
    </contour>
    <component base="knO"/>
  </outline>
</glyph>
<glyph name="knAU" format="1">
  <advance width="748"/>
  <unicode hex="0C94"/>
  <outline>
    <contour>
      <point x="100" y="633" type="move"/>
      <point x="449" y="633" type="line" smooth="yes"/>
      <point x="595" y="633"/>
      <point x="660" y="566"/>
      <point x="660" y="476" type="curve"/>
      <point x="660" y="393"/>
      <point x="616" y="344"/>
      <point x="558" y="344" type="curve" smooth="yes"/>
      <point x="503" y="344"/>
      <point x="471" y="381"/>
      <point x="471" y="422" type="curve" smooth="yes"/>
      <point x="471" y="471"/>
      <point x="508" y="517"/>
      <point x="577" y="517" type="curve" smooth="yes"/>
      <point x="604" y="517"/>
      <point x="632" y="514"/>
      <point x="655" y="506" type="curve"/>
    </contour>
    <contour>
      <point x="105" y="465" type="move"/>
      <point x="181" y="465" type="line" smooth="yes"/>
      <point x="290" y="465"/>
      <point x="339" y="527"/>
      <point x="338" y="625" type="curve"/>
    </contour>
    <component base="knO" xOffset="2"/>
  </outline>
</glyph>
<glyph name="knNGA" format="1">
  <advance width="742"/>
  <unicode hex="0C99"/>
  <outline>
    <contour>
      <point x="262" y="339" type="move"/>
      <point x="301" y="458"/>
      <point x="371" y="501"/>
      <point x="443" y="501" type="curve" smooth="yes"/>
      <point x="511" y="501"/>
      <point x="567" y="472"/>
      <point x="619" y="393" type="curve"/>
    </contour>
    <contour>
      <point x="428" y="341" type="curve" smooth="yes"/>
      <point x="413" y="341"/>
      <point x="400" y="326"/>
      <point x="400" y="314" type="curve" smooth="yes"/>
      <point x="400" y="298"/>
      <point x="413" y="285"/>
      <point x="428" y="285" type="curve" smooth="yes"/>
      <point x="445" y="285"/>
      <point x="457" y="298"/>
      <point x="457" y="313" type="curve" smooth="yes"/>
      <point x="457" y="326"/>
      <point x="445" y="341"/>
    </contour>
    <component base="knO" yOffset="1"/>
  </outline>
</glyph>
<glyph name="knDDA" format="1">
  <advance width="770"/>
  <unicode hex="0CA1"/>
  <outline>
    <contour>
      <point x="108" y="433" type="move"/>
      <point x="528" y="433" type="line" smooth="yes"/>
      <point x="601" y="433"/>
      <point x="644" y="459"/>
      <point x="676" y="511" type="curve"/>
    </contour>
    <contour>
      <point x="299" y="433" type="move"/>
      <point x="175" y="378"/>
      <point x="106" y="266"/>
      <point x="106" y="164" type="curve" smooth="yes"/>
      <point x="106" y="74"/>
      <point x="165" y="23"/>
      <point x="233" y="23" type="curve" smooth="yes"/>
      <point x="298" y="23"/>
      <point x="338" y="56"/>
      <point x="374" y="124" type="curve"/>
      <point x="379" y="124" type="line"/>
      <point x="417" y="54"/>
      <point x="477" y="23"/>
      <point x="533" y="23" type="curve" smooth="yes"/>
      <point x="624" y="23"/>
      <point x="678" y="81"/>
      <point x="678" y="168" type="curve" smooth="yes"/>
      <point x="678" y="237"/>
      <point x="627" y="344"/>
      <point x="478" y="433" type="curve"/>
    </contour>
    <contour>
      <point x="571" y="352" type="move"/>
      <point x="502" y="352"/>
      <point x="461" y="300"/>
      <point x="461" y="257" type="curve" smooth="yes"/>
      <point x="461" y="214"/>
      <point x="497" y="177"/>
      <point x="547" y="177" type="curve" smooth="yes"/>
      <point x="595" y="177"/>
      <point x="632" y="203"/>
      <point x="654" y="251" type="curve"/>
    </contour>
  </outline>
</glyph>
<glyph name="knLLA" format="1">
  <advance width="730"/>
  <unicode hex="0CB3"/>
  <outline>
    <contour>
      <point x="90" y="318" type="move"/>
      <point x="120" y="303"/>
      <point x="154" y="294"/>
      <point x="192" y="294" type="curve" smooth="yes"/>
      <point x="252" y="294"/>
      <point x="286" y="327"/>
      <point x="286" y="371" type="curve" smooth="yes"/>
      <point x="286" y="413"/>
      <point x="253" y="448"/>
      <point x="198" y="448" type="curve" smooth="yes"/>
      <point x="136" y="448"/>
      <point x="89" y="393"/>
      <point x="89" y="329" type="curve" smooth="yes"/>
      <point x="89" y="292"/>
      <point x="98" y="252"/>
      <point x="121" y="229" type="curve" smooth="yes"/>
      <point x="161" y="189"/>
      <point x="216" y="164"/>
      <point x="360" y="164" type="curve" smooth="yes"/>
      <point x="471" y="164"/>
      <point x="542" y="188"/>
      <point x="577" y="222" type="curve" smooth="yes"/>
      <point x="600" y="244"/>
      <point x="613" y="274"/>
      <point x="613" y="304" type="curve" smooth="yes"/>
      <point x="613" y="347"/>
      <point x="583" y="407"/>
      <point x="521" y="433" type="curve"/>
    </contour>
    <contour>
      <point x="428" y="433" type="move"/>
      <point x="530" y="433" type="line" smooth="yes"/>
      <point x="603" y="433"/>
      <point x="646" y="459"/>
      <point x="678" y="511" type="curve"/>
    </contour>
    <contour>
      <point x="352" y="162" type="curve" smooth="yes"/>
      <point x="274" y="161"/>
      <point x="243" y="124"/>
      <point x="243" y="85" type="curve" smooth="yes"/>
      <point x="243" y="46"/>
      <point x="279" y="7"/>
      <point x="352" y="7" type="curve" smooth="yes"/>
      <point x="428" y="7"/>
      <point x="462" y="46"/>
      <point x="462" y="84" type="curve" smooth="yes"/>
      <point x="462" y="124"/>
      <point x="435" y="163"/>
    </contour>
  </outline>
</glyph>
<glyph name="knVA" format="1">
  <advance width="726"/>
  <unicode hex="0CB5"/>
  <outline>
    <contour>
      <point x="118" y="433" type="move"/>
      <point x="483" y="433" type="line" smooth="yes"/>
      <point x="556" y="433"/>
      <point x="599" y="459"/>
      <point x="631" y="511" type="curve"/>
    </contour>
    <contour>
      <point x="189" y="216" type="move"/>
      <point x="127" y="207"/>
      <point x="93" y="166"/>
      <point x="93" y="118" type="curve" smooth="yes"/>
      <point x="93" y="65"/>
      <point x="136" y="23"/>
      <point x="204" y="23" type="curve" smooth="yes"/>
      <point x="280" y="23"/>
      <point x="324" y="55"/>
      <point x="361" y="124" type="curve"/>
      <point x="366" y="124" type="line"/>
      <point x="408" y="59"/>
      <point x="450" y="23"/>
      <point x="518" y="23" type="curve" smooth="yes"/>
      <point x="584" y="23"/>
      <point x="638" y="74"/>
      <point x="638" y="154" type="curve" smooth="yes"/>
      <point x="638" y="242"/>
      <point x="575" y="348"/>
      <point x="429" y="430" type="curve"/>
    </contour>
  </outline>
</glyph>
<glyph name="knHA" format="1">
  <advance width="790"/>
  <unicode hex="0CB9"/>
  <outline>
    <contour>
      <point x="382" y="150" type="curve" smooth="yes"/>
      <point x="382" y="218"/>
      <point x="326" y="280"/>
      <point x="235" y="280" type="curve" smooth="yes"/>
      <point x="151" y="280"/>
      <point x="97" y="218"/>
      <point x="97" y="150" type="curve" smooth="yes"/>
      <point x="97" y="80"/>
      <point x="150" y="19"/>
      <point x="235" y="19" type="curve" smooth="yes"/>
      <point x="324" y="19"/>
      <point x="382" y="80"/>
    </contour>
    <contour>
      <point x="693" y="150" type="curve" smooth="yes"/>
      <point x="693" y="218"/>
      <point x="641" y="280"/>
      <point x="553" y="280" type="curve" smooth="yes"/>
      <point x="467" y="280"/>
      <point x="408" y="218"/>
      <point x="408" y="150" type="curve" smooth="yes"/>
      <point x="408" y="80"/>
      <point x="468" y="19"/>
      <point x="553" y="19" type="curve" smooth="yes"/>
      <point x="642" y="19"/>
      <point x="693" y="80"/>
    </contour>
    <contour>
      <point x="114" y="433" type="move"/>
      <point x="555" y="433" type="line" smooth="yes"/>
      <point x="628" y="433"/>
      <point x="671" y="459"/>
      <point x="703" y="511" type="curve"/>
    </contour>
    <contour>
      <point x="395" y="214" type="move"/>
      <point x="395" y="405" type="line" smooth="yes"/>
    </contour>
  </outline>
</glyph>
<glyph name="knAvagraha" format="1">
  <advance width="420"/>
  <unicode hex="0CBD"/>
  <outline>
    <contour>
      <point x="119" y="49" type="move"/>
      <point x="148" y="29"/>
      <point x="188" y="13"/>
      <point x="235" y="13" type="curve" smooth="yes"/>
      <point x="305" y="13"/>
      <point x="336" y="57"/>
      <point x="336" y="102" type="curve" smooth="yes"/>
      <point x="336" y="146"/>
      <point x="298" y="186"/>
      <point x="201" y="234" type="curve" smooth="yes"/>
      <point x="129" y="270"/>
      <point x="87" y="309"/>
      <point x="87" y="352" type="curve" smooth="yes"/>
      <point x="87" y="396"/>
      <point x="118" y="433"/>
      <point x="179" y="433" type="curve" smooth="yes"/>
      <point x="340" y="433" type="line"/>
    </contour>
  </outline>
</glyph>
<glyph name="knsignU" format="1">
  <advance width="316"/>
  <unicode hex="0CC1"/>
  <outline>
    <contour>
      <point x="-76" y="125" type="move"/>
      <point x="-26" y="50"/>
      <point x="26" y="23"/>
      <point x="87" y="23" type="curve" smooth="yes"/>
      <point x="179" y="23"/>
      <point x="226" y="83"/>
      <point x="226" y="169" type="curve" smooth="yes"/>
      <point x="226" y="250"/>
      <point x="180" y="346"/>
      <point x="120" y="412" type="curve"/>
    </contour>
  </outline>
</glyph>
<glyph name="knsignvLL" format="1">
  <advance width="0"/>
  <unicode hex="0CE3"/>
  <outline>
    <contour>
      <point x="186" y="-120" type="move"/>
      <point x="267" y="-120" type="line" smooth="yes"/>
      <point x="369" y="-120"/>
      <point x="442" y="-175"/>
      <point x="442" y="-272" type="curve" smooth="yes"/>
      <point x="442" y="-325"/>
      <point x="410" y="-356"/>
      <point x="366" y="-356" type="curve" smooth="yes"/>
      <point x="321" y="-356"/>
      <point x="301" y="-329"/>
      <point x="301" y="-303" type="curve" smooth="yes"/>
      <point x="300" y="-273"/>
      <point x="324" y="-242"/>
      <point x="375" y="-242" type="curve" smooth="yes"/>
      <point x="395" y="-242"/>
      <point x="421" y="-244"/>
      <point x="439" y="-249" type="curve"/>
    </contour>
    <component base="knsignvL"/>
  </outline>
</glyph>
<glyph name="knFour" format="1">
  <advance width="672"/>
  <unicode hex="0CEA"/>
  <outline>
    <contour>
      <point x="97" y="318" type="move"/>
      <point x="127" y="303"/>
      <point x="161" y="294"/>
      <point x="199" y="294" type="curve" smooth="yes"/>
      <point x="259" y="294"/>
      <point x="293" y="327"/>
      <point x="293" y="371" type="curve" smooth="yes"/>
      <point x="293" y="413"/>
      <point x="260" y="448"/>
      <point x="205" y="448" type="curve" smooth="yes"/>
      <point x="143" y="448"/>
      <point x="96" y="393"/>
      <point x="96" y="329" type="curve" smooth="yes"/>
      <point x="96" y="292"/>
      <point x="105" y="252"/>
      <point x="128" y="229" type="curve" smooth="yes"/>
      <point x="168" y="189"/>
      <point x="223" y="164"/>
      <point x="357" y="164" type="curve" smooth="yes"/>
      <point x="448" y="164"/>
      <point x="509" y="188"/>
      <point x="541" y="219" type="curve" smooth="yes"/>
      <point x="567" y="244"/>
      <point x="580" y="274"/>
      <point x="580" y="310" type="curve" smooth="yes"/>
      <point x="580" y="360"/>
      <point x="546" y="401"/>
      <point x="488" y="433" type="curve"/>
    </contour>
    <contour>
      <point x="349" y="162" type="curve" smooth="yes"/>
      <point x="271" y="161"/>
      <point x="240" y="124"/>
      <point x="240" y="85" type="curve" smooth="yes"/>
      <point x="240" y="46"/>
      <point x="276" y="7"/>
      <point x="349" y="7" type="curve" smooth="yes"/>
      <point x="425" y="7"/>
      <point x="459" y="46"/>
      <point x="459" y="84" type="curve" smooth="yes"/>
      <point x="459" y="124"/>
      <point x="432" y="163"/>
    </contour>
  </outline>
</glyph>
<glyph name="knSix" format="1">
  <advance width="546"/>
  <unicode hex="0CEC"/>
  <outline>
    <contour>
      <point x="474" y="23" type="move"/>
      <point x="350" y="23" type="line" smooth="yes"/>
      <point x="183" y="23"/>
      <point x="90" y="109"/>
      <point x="90" y="221" type="curve" smooth="yes"/>
      <point x="90" y="336"/>
      <point x="183" y="406"/>
      <point x="281" y="406" type="curve" smooth="yes"/>
      <point x="351" y="406"/>
      <point x="391" y="364"/>
      <point x="391" y="312" type="curve" smooth="yes"/>
      <point x="391" y="267"/>
      <point x="350" y="229"/>
      <point x="304" y="229" type="curve" smooth="yes"/>
      <point x="246" y="229"/>
      <point x="195" y="269"/>
      <point x="195" y="344" type="curve" smooth="yes"/>
      <point x="195" y="424"/>
      <point x="212" y="476"/>
      <point x="245" y="535" type="curve"/>
    </contour>
  </outline>
</glyph>
<glyph name="knSeven" format="1">
  <advance width="580"/>
  <unicode hex="0CED"/>
  <outline>
    <contour>
      <point x="170" y="391" type="move"/>
      <point x="197" y="425"/>
      <point x="230" y="447"/>
      <point x="270" y="447" type="curve" smooth="yes"/>
      <point x="330" y="447"/>
      <point x="371" y="407"/>
      <point x="371" y="356" type="curve" smooth="yes"/>
      <point x="371" y="301"/>
      <point x="329" y="264"/>
      <point x="224" y="220" type="curve" smooth="yes"/>
      <point x="122" y="177"/>
      <point x="96" y="139"/>
      <point x="96" y="100" type="curve" smooth="yes"/>
      <point x="96" y="56"/>
      <point x="128" y="23"/>
      <point x="193" y="23" type="curve" smooth="yes"/>
      <point x="508" y="23" type="line"/>
    </contour>
  </outline>
</glyph>
<glyph name="quotesinglbase" format="1">
  <advance width="245"/>
  <unicode hex="201A"/>
  <outline>
    <contour>
      <point x="124" y="75" type="move"/>
      <point x="128" y="63"/>
      <point x="130" y="45"/>
      <point x="130" y="26" type="curve" smooth="yes"/>
      <point x="130" y="-20"/>
      <point x="115" y="-66"/>
      <point x="89" y="-101" type="curve" smooth="yes"/>
    </contour>
  </outline>
</glyph>
<glyph name="guilsinglleft" format="1">
  <advance width="268"/>
  <unicode hex="2039"/>
  <outline>
    <contour>
      <point x="71" y="189" type="move"/>
      <point x="182" y="39" type="line"/>
    </contour>
    <contour>
      <point x="182" y="344" type="move"/>
      <point x="71" y="194" type="line"/>
    </contour>
  </outline>
</glyph>
<glyph name="Euro" format="1">
  <advance width="595"/>
  <unicode hex="20AC"/>
  <outline>
    <contour>
      <point x="75" y="338" type="move"/>
      <point x="423" y="338" type="line"/>
    </contour>
    <contour>
      <point x="75" y="188" type="move"/>
      <point x="423" y="188" type="line"/>
    </contour>
    <contour>
      <point x="508" y="488" type="move"/>
      <point x="477" y="506"/>
      <point x="430" y="517"/>
      <point x="380" y="517" type="curve" smooth="yes"/>
      <point x="245" y="517"/>
      <point x="147" y="415"/>
      <point x="147" y="262" type="curve" smooth="yes"/>
      <point x="147" y="122"/>
      <point x="224" y="14"/>
      <point x="385" y="14" type="curve" smooth="yes"/>
      <point x="434" y="14"/>
      <point x="478" y="25"/>
      <point x="512" y="44" type="curve"/>
    </contour>
  </outline>
</glyph>
<glyph name="uni20BD" format="1">
  <advance width="532"/>
  <unicode hex="20BD"/>
  <outline>
    <contour>
      <point x="65" y="262" type="move"/>
      <point x="293" y="262" type="line" smooth="yes"/>
      <point x="404" y="262"/>
      <point x="452" y="318"/>
      <point x="452" y="385" type="curve" smooth="yes"/>
      <point x="452" y="458"/>
      <point x="392" y="508"/>
      <point x="293" y="508" type="curve" smooth="yes"/>
      <point x="158" y="508" type="line"/>
      <point x="158" y="23" type="line"/>
    </contour>
    <contour>
      <point x="64" y="113" type="move"/>
      <point x="326" y="113" type="line"/>
    </contour>
  </outline>
</glyph>
<glyph name="knAIlengthmark.following" format="1">
  <advance width="604"/>
  <outline>
    <contour>
      <point x="232" y="-236" type="move"/>
      <point x="258" y="-251"/>
      <point x="278" y="-259"/>
      <point x="309" y="-259" type="curve" smooth="yes"/>
      <point x="346" y="-259"/>
      <point x="381" y="-233"/>
      <point x="381" y="-189" type="curve" smooth="yes"/>
      <point x="381" y="-157"/>
      <point x="359" y="-123"/>
      <point x="311" y="-123" type="curve" smooth="yes"/>
      <point x="263" y="-123"/>
      <point x="230" y="-167"/>
      <point x="230" y="-219" type="curve" smooth="yes"/>
      <point x="230" y="-267"/>
      <point x="248" y="-303"/>
      <point x="282" y="-337" type="curve" smooth="yes"/>
      <point x="312" y="-367"/>
      <point x="363" y="-382"/>
      <point x="412" y="-382" type="curve" smooth="yes"/>
      <point x="463" y="-382"/>
      <point x="507" y="-364"/>
      <point x="534" y="-337" type="curve" smooth="yes"/>
      <point x="559" y="-312"/>
      <point x="573" y="-276"/>
      <point x="573" y="-237" type="curve" smooth="yes"/>
      <point x="573" y="-195"/>
      <point x="555" y="-157"/>
      <point x="531" y="-133" type="curve" smooth="yes"/>
      <point x="514" y="-116"/>
      <point x="500" y="-106"/>
      <point x="479" y="-96" type="curve"/>
    </contour>
    <contour>
      <point x="484" y="-95" type="move"/>
      <point x="525" y="-83"/>
      <point x="548" y="-56"/>
      <point x="548" y="-17" type="curve" smooth="yes"/>
      <point x="548" y="4"/>
      <point x="539" y="26"/>
      <point x="524" y="44" type="curve"/>
    </contour>
  </outline>
</glyph>
<glyph name="knCAc2" format="1">
  <advance width="0"/>
  <outline>
    <contour>
      <point x="-18" y="-205" type="move"/>
      <point x="156" y="-205" type="line"/>
    </contour>
    <contour>
      <point x="-281" y="-135" type="move"/>
      <point x="-262" y="-125"/>
      <point x="-244" y="-121"/>
      <point x="-220" y="-121" type="curve" smooth="yes"/>
      <point x="-187" y="-121"/>
      <point x="-158" y="-142"/>
      <point x="-158" y="-171" type="curve" smooth="yes"/>
      <point x="-158" y="-192"/>
      <point x="-177" y="-212"/>
      <point x="-213" y="-231" type="curve" smooth="yes"/>
      <point x="-243" y="-247"/>
      <point x="-263" y="-271"/>
      <point x="-263" y="-298" type="curve" smooth="yes"/>
      <point x="-263" y="-331"/>
      <point x="-236" y="-356"/>
      <point x="-188" y="-356" type="curve" smooth="yes"/>
      <point x="-149" y="-356"/>
      <point x="-115" y="-341"/>
      <point x="-76" y="-305" type="curve"/>
      <point x="-72" y="-305" type="line"/>
      <point x="-36" y="-341"/>
      <point x="1" y="-356"/>
      <point x="39" y="-356" type="curve" smooth="yes"/>
      <point x="89" y="-356"/>
      <point x="116" y="-326"/>
      <point x="116" y="-285" type="curve" smooth="yes"/>
      <point x="116" y="-257"/>
      <point x="103" y="-233"/>
      <point x="86" y="-209" type="curve"/>
    </contour>
  </outline>
</glyph>
<glyph name="knGHAc2" format="1">
  <advance width="119"/>
  <outline>
    <contour>
      <point x="118" y="-185" type="move"/>
      <point x="145" y="-213"/>
      <point x="173" y="-225"/>
      <point x="205" y="-225" type="curve" smooth="yes"/>
      <point x="245" y="-225"/>
      <point x="270" y="-197"/>
      <point x="270" y="-159" type="curve" smooth="yes"/>
      <point x="270" y="-143"/>
      <point x="268" y="-129"/>
      <point x="264" y="-115" type="curve"/>
    </contour>
    <contour>
      <point x="-78" y="-359" type="move"/>
      <point x="-78" y="-425" type="line"/>
    </contour>
    <component base="knPAc2"/>
  </outline>
</glyph>
<glyph name="knLLI" format="1">
  <advance width="717"/>
  <outline>
    <contour>
      <point x="352" y="162" type="curve" smooth="yes"/>
      <point x="274" y="161"/>
      <point x="243" y="124"/>
      <point x="243" y="85" type="curve" smooth="yes"/>
      <point x="243" y="46"/>
      <point x="279" y="7"/>
      <point x="352" y="7" type="curve" smooth="yes"/>
      <point x="428" y="7"/>
      <point x="462" y="46"/>
      <point x="462" y="84" type="curve" smooth="yes"/>
      <point x="462" y="124"/>
      <point x="435" y="163"/>
    </contour>
    <contour>
      <point x="90" y="318" type="move"/>
      <point x="120" y="303"/>
      <point x="154" y="294"/>
      <point x="192" y="294" type="curve" smooth="yes"/>
      <point x="252" y="294"/>
      <point x="286" y="327"/>
      <point x="286" y="371" type="curve" smooth="yes"/>
      <point x="286" y="413"/>
      <point x="253" y="448"/>
      <point x="198" y="448" type="curve" smooth="yes"/>
      <point x="136" y="448"/>
      <point x="89" y="393"/>
      <point x="89" y="329" type="curve" smooth="yes"/>
      <point x="89" y="292"/>
      <point x="98" y="252"/>
      <point x="121" y="229" type="curve" smooth="yes"/>
      <point x="161" y="189"/>
      <point x="216" y="164"/>
      <point x="360" y="164" type="curve" smooth="yes"/>
      <point x="463" y="164"/>
      <point x="540" y="198"/>
      <point x="581" y="239" type="curve" smooth="yes"/>
      <point x="617" y="275"/>
      <point x="634" y="320"/>
      <point x="634" y="373" type="curve" smooth="yes"/>
      <point x="634" y="433"/>
      <point x="608" y="508"/>
      <point x="554" y="562" type="curve" smooth="yes"/>
      <point x="522" y="594"/>
      <point x="486" y="611"/>
      <point x="443" y="611" type="curve" smooth="yes"/>
      <point x="383" y="611"/>
      <point x="353" y="565"/>
      <point x="353" y="527" type="curve" smooth="yes"/>
      <point x="353" y="486"/>
      <point x="384" y="446"/>
      <point x="441" y="446" type="curve" smooth="yes"/>
      <point x="493" y="446"/>
      <point x="535" y="477"/>
      <point x="574" y="540" type="curve"/>
    </contour>
  </outline>
</glyph>
<glyph name="knNYAc2" format="1">
  <advance width="5"/>
  <outline>
    <contour>
      <point x="65" y="-170" type="move"/>
      <point x="84" y="-150"/>
      <point x="110" y="-131"/>
      <point x="139" y="-131" type="curve" smooth="yes"/>
      <point x="180" y="-131"/>
      <point x="201" y="-159"/>
      <point x="201" y="-189" type="curve" smooth="yes"/>
      <point x="201" y="-202"/>
      <point x="199" y="-211"/>
      <point x="196" y="-224" type="curve"/>
    </contour>
    <contour>
      <point x="82" y="-408" type="move"/>
      <point x="28" y="-306"/>
      <point x="-60" y="-257"/>
      <point x="-130" y="-257" type="curve" smooth="yes"/>
      <point x="-181" y="-257"/>
      <point x="-205" y="-280"/>
      <point x="-206" y="-308" type="curve" smooth="yes"/>
      <point x="-207" y="-337"/>
      <point x="-181" y="-362"/>
      <point x="-130" y="-362" type="curve" smooth="yes"/>
      <point x="-15" y="-362"/>
      <point x="59" y="-274"/>
      <point x="59" y="-207" type="curve" smooth="yes"/>
      <point x="59" y="-151"/>
      <point x="27" y="-127"/>
      <point x="-14" y="-127" type="curve" smooth="yes"/>
      <point x="-58" y="-127"/>
      <point x="-86" y="-153"/>
      <point x="-112" y="-191" type="curve"/>
      <point x="-115" y="-191" type="line"/>
      <point x="-140" y="-154"/>
      <point x="-168" y="-126"/>
      <point x="-216" y="-126" type="curve" smooth="yes"/>
      <point x="-260" y="-126"/>
      <point x="-285" y="-158"/>
      <point x="-285" y="-194" type="curve" smooth="yes"/>
      <point x="-285" y="-206"/>
      <point x="-283" y="-215"/>
      <point x="-278" y="-227" type="curve"/>
    </contour>
  </outline>
</glyph>
<glyph name="knSA.base" format="1">
  <advance width="670"/>
  <outline>
    <contour>
      <point x="93" y="433" type="move"/>
      <point x="474" y="433" type="line" smooth="yes"/>
    </contour>
    <contour>
      <point x="118" y="13" type="move"/>
      <point x="118" y="83"/>
      <point x="134" y="131"/>
      <point x="160" y="157" type="curve" smooth="yes"/>
      <point x="176" y="173"/>
      <point x="200" y="185"/>
      <point x="229" y="185" type="curve" smooth="yes"/>
      <point x="266" y="185"/>
      <point x="309" y="166"/>
      <point x="347" y="114" type="curve" smooth="yes"/>
      <point x="386" y="61"/>
      <point x="416" y="23"/>
      <point x="476" y="23" type="curve" smooth="yes"/>
      <point x="540" y="23"/>
      <point x="591" y="67"/>
      <point x="591" y="168" type="curve" smooth="yes"/>
      <point x="591" y="196"/>
      <point x="585" y="234"/>
      <point x="576" y="263" type="curve"/>
    </contour>
    <contour>
      <point x="297" y="430" type="move"/>
      <point x="271" y="406"/>
      <point x="261" y="377"/>
      <point x="261" y="352" type="curve" smooth="yes"/>
      <point x="261" y="309"/>
      <point x="295" y="269"/>
      <point x="353" y="269" type="curve" smooth="yes"/>
      <point x="413" y="269"/>
      <point x="445" y="308"/>
      <point x="445" y="353" type="curve" smooth="yes"/>
      <point x="445" y="378"/>
      <point x="436" y="407"/>
      <point x="409" y="432" type="curve"/>
    </contour>
  </outline>
</glyph>
<glyph name="knTAc2.following" format="1">
  <advance width="397"/>
  <outline>
    <contour>
      <point x="253" y="-516" type="move"/>
      <point x="249" y="-501"/>
      <point x="241" y="-480"/>
      <point x="241" y="-454" type="curve" smooth="yes"/>
      <point x="241" y="-399"/>
      <point x="274" y="-358"/>
      <point x="328" y="-358" type="curve" smooth="yes"/>
      <point x="380" y="-358"/>
      <point x="411" y="-389"/>
      <point x="411" y="-431" type="curve" smooth="yes"/>
      <point x="411" y="-481"/>
      <point x="382" y="-521"/>
      <point x="282" y="-521" type="curve" smooth="yes"/>
      <point x="-10" y="-521" type="line"/>
    </contour>
  </outline>
</glyph>
<glyph name="knsignvRR.following" format="1">
  <advance width="930"/>
  <outline>
    <contour>
      <point x="533" y="49" type="move"/>
      <point x="679" y="49" type="line" smooth="yes"/>
      <point x="801" y="49"/>
      <point x="855" y="-7"/>
      <point x="855" y="-82" type="curve"/>
      <point x="855" y="-151"/>
      <point x="818" y="-192"/>
      <point x="770" y="-192" type="curve" smooth="yes"/>
      <point x="724" y="-192"/>
      <point x="698" y="-161"/>
      <point x="697" y="-127" type="curve" smooth="yes"/>
      <point x="697" y="-86"/>
      <point x="728" y="-48"/>
      <point x="786" y="-48" type="curve" smooth="yes"/>
      <point x="808" y="-48"/>
      <point x="832" y="-50"/>
      <point x="851" y="-57" type="curve"/>
    </contour>
    <contour>
      <point x="232" y="-236" type="move"/>
      <point x="250" y="-249"/>
      <point x="270" y="-263"/>
      <point x="310" y="-263" type="curve" smooth="yes"/>
      <point x="347" y="-263"/>
      <point x="383" y="-236"/>
      <point x="383" y="-189" type="curve" smooth="yes"/>
      <point x="383" y="-155"/>
      <point x="361" y="-122"/>
      <point x="313" y="-122" type="curve" smooth="yes"/>
      <point x="265" y="-122"/>
      <point x="230" y="-165"/>
      <point x="230" y="-220" type="curve" smooth="yes"/>
      <point x="230" y="-271"/>
      <point x="246" y="-311"/>
      <point x="280" y="-345" type="curve" smooth="yes"/>
      <point x="310" y="-375"/>
      <point x="358" y="-391"/>
      <point x="407" y="-391" type="curve" smooth="yes"/>
      <point x="460" y="-391"/>
      <point x="502" y="-374"/>
      <point x="532" y="-344" type="curve" smooth="yes"/>
      <point x="565" y="-311"/>
      <point x="582" y="-262"/>
      <point x="582" y="-197" type="curve" smooth="yes"/>
      <point x="582" y="-136"/>
      <point x="565" y="-48"/>
      <point x="535" y="44" type="curve"/>
    </contour>
  </outline>
</glyph>
<glyph name="knsignvR.following" format="1">
  <advance width="609"/>
  <outline>
    <contour>
      <point x="232" y="-236" type="move"/>
      <point x="250" y="-249"/>
      <point x="270" y="-263"/>
      <point x="310" y="-263" type="curve" smooth="yes"/>
      <point x="347" y="-263"/>
      <point x="383" y="-236"/>
      <point x="383" y="-189" type="curve" smooth="yes"/>
      <point x="383" y="-155"/>
      <point x="361" y="-122"/>
      <point x="313" y="-122" type="curve" smooth="yes"/>
      <point x="265" y="-122"/>
      <point x="230" y="-165"/>
      <point x="230" y="-220" type="curve" smooth="yes"/>
      <point x="230" y="-271"/>
      <point x="246" y="-311"/>
      <point x="280" y="-345" type="curve" smooth="yes"/>
      <point x="310" y="-375"/>
      <point x="358" y="-391"/>
      <point x="407" y="-391" type="curve" smooth="yes"/>
      <point x="460" y="-391"/>
      <point x="502" y="-374"/>
      <point x="532" y="-344" type="curve" smooth="yes"/>
      <point x="565" y="-311"/>
      <point x="582" y="-262"/>
      <point x="582" y="-197" type="curve" smooth="yes"/>
      <point x="582" y="-136"/>
      <point x="565" y="-48"/>
      <point x="535" y="44" type="curve"/>
    </contour>
  </outline>
</glyph>
<glyph name="uni2206" format="1">
  <advance width="554"/>
  <outline>
    <contour>
      <point x="269" y="508" type="move"/>
      <point x="103" y="23" type="line"/>
    </contour>
    <contour>
      <point x="119" y="23" type="move"/>
      <point x="424" y="23" type="line"/>
    </contour>
    <contour>
      <point x="449" y="23" type="move"/>
      <point x="283" y="508" type="line"/>
    </contour>
  </outline>
</glyph>
